<svg
    xmlns="http://www.w3.org/2000/svg"
    viewBox="0 0 650 750"
    id="vector">
    <g
        id="group"
        transform="translate(-85 -25) scale(1.8 1.8)">
        <path
            id="path"
            d="M 174.6 17.1 C 165.9 19.2 161 24.4 161 31.6 C 161 34.6 161.8 36 165.3 39.5 C 173.8 47.9 187.2 47.9 195.7 39.3 C 200 35 200.2 34.6 199.7 30.3 C 198.6 20.6 186.5 14.2 174.6 17.1 Z M 188.4 21.4 C 195.7 24.4 198 30.4 194 36 C 188.3 44 172.7 43.8 166.2 35.5 C 163.6 32.2 163.5 30.9 165.6 26.9 C 168.6 21 180.6 18.1 188.4 21.4 Z"
            fill="#808080"
            stroke-width="1"/>
        <path
            id="path_1"
            d="M 184.3 25.9 C 183.3 27.4 183.4 27.9 184.5 28.4 C 185.3 28.7 186 29.4 186 30.1 C 186 30.9 183.5 31.1 178.1 30.9 C 173.7 30.7 170.7 30.8 171.4 31.2 C 173.6 32.4 191.4 32.4 193.5 31.2 C 195.3 30.2 195.1 30.1 191.9 30 C 188.1 30 186.5 28.8 185.9 25.7 C 185.5 24.1 185.4 24.1 184.3 25.9 Z M 171.3 63.9 C 159 69.6 147.2 86.5 131 121.3 C 127.2 129.4 121.6 139.6 118.6 143.8 C 111.7 153.6 106.8 163.3 103.8 173.2 C 102 179.2 101.1 181 99.7 181 C 97 181 89.4 185.7 86.4 189.3 C 80.5 196.2 72 218.2 65.8 242 C 62.1 256.5 61.8 258.6 61.3 275.5 C 60.8 291.5 61 294.5 62.8 301.6 C 64.8 309.7 73 327.7 75.2 329.1 C 76.1 329.7 76 330.3 74.9 331.7 C 71.5 335.6 63 351.9 60.6 359.1 C 57.4 368.5 55.4 383.6 56.4 391 C 60.3 421.8 102.6 431.2 180 418.5 C 200.4 415.2 243.4 415.1 260.5 418.4 C 278.5 421.8 301.4 424.4 314.5 424.4 C 326.9 424.3 329.6 424 337.5 421.6 C 353.7 416.7 363.4 409.9 368.1 400.4 C 371.6 393.1 371.7 386.3 368.5 374 C 365.5 362.7 365.6 365.6 367.8 332.5 C 368.6 321.7 367.3 315.6 363.3 310.1 C 361 307.1 351.7 301.1 347.9 300.3 C 345.4 299.8 345.2 299.4 344.6 291.7 C 344 283.1 342.3 276.4 339.4 270.9 C 337.2 266.6 329.8 255.6 328.8 255.2 C 327.2 254.5 328.2 252.8 335.6 243.3 C 349.6 225.3 353.2 214.9 353.3 192 C 353.3 180.2 353 176 351.2 169.5 C 348.3 158.7 344.7 150.1 339.2 140.5 C 333 130 313.8 110.5 302 102.7 C 281.6 89.4 251.2 76.6 221.6 69 C 195 62.2 178.6 60.5 171.3 63.9 Z M 196.4 67.1 C 240 74.5 284.4 92.4 310.6 113.3 C 338.3 135.4 353.8 169.8 350.1 200.8 C 348 218.2 342.9 229.8 331.9 242.7 C 321 255.4 298.4 267.5 278.1 271.6 C 267.7 273.6 244.8 273.1 235.5 270.5 C 210.9 263.8 190.4 243.9 181.4 218.1 L 179.1 211.5 L 170.8 209.9 C 160.4 207.8 150.7 204.3 136.1 197.4 L 124.8 192 L 125.2 183.2 C 125.7 172.5 129.4 163.7 135.9 157.5 C 138.3 155.3 143 150.7 146.5 147.3 C 155.7 138.5 172.1 131 182.5 131 C 185.5 131 198 134.7 199 135.9 C 199.3 136.2 200.7 137.2 202.2 138 C 203.7 138.8 209.5 144 215.2 149.5 C 226.5 160.5 234.9 166.5 244.9 170.7 C 248.6 172.2 251.7 173.8 252 174.2 C 252.3 174.6 253.2 174.5 254 174 C 255.2 173.2 255.2 173 254.1 173 C 251.2 173 235.3 164.7 228 159.4 C 223.7 156.3 217.6 150.9 214.5 147.4 C 201.4 132.6 186.7 127.4 169.2 131.5 C 161.5 133.3 152 138 146 142.9 C 143.5 144.9 139.4 147.8 136.7 149.4 C 134.1 150.9 130.2 154.3 128.1 157 C 123.5 162.8 118.2 175 117.4 181.7 C 116.8 186 116.9 186.3 118.3 185 C 119.1 184.2 120.1 182.1 120.3 180.5 C 121.7 171.8 129.1 158.2 133.9 155.6 C 134.8 155.1 134.3 156 132.7 157.7 C 131.2 159.3 130.3 160.9 130.7 161.3 C 131 161.7 130.6 162 129.8 162 C 128.8 162 128 163.3 127.6 165.4 C 127.2 167.3 126.5 169 126 169.2 C 125.5 169.4 125 170.6 124.8 172 C 124.6 173.4 124.2 174.9 123.8 175.5 C 123.5 176 123.3 179.7 123.4 183.6 L 123.5 190.7 L 118.5 188 C 115.8 186.5 111.8 184.7 109.8 184 C 105.1 182.6 104.9 180.5 108.4 170.4 C 111.6 161 114.8 154.9 121.5 145.5 C 124.7 141.1 129 133.5 131.2 128.6 C 146.6 93.6 160.9 72.1 172.4 66.9 C 177.7 64.5 181.6 64.5 196.4 67.1 Z M 108.6 186 C 111.8 187.1 117 189.6 120 191.4 C 134.7 200.4 155.9 209.2 169.2 211.8 C 177.5 213.4 177.9 213.6 178.4 216.5 C 179.6 222 187.8 237.5 193.5 244.9 C 211.1 267.3 237.6 278 268.3 275 C 285.1 273.4 302.1 267.6 315.9 258.6 L 322.8 254.2 L 325.7 257.3 C 337.3 269.7 343.8 288.1 340.9 300.5 C 338.2 312.1 331.7 321.5 319.6 331.5 C 309.1 340.3 296.1 347.3 285.4 350 C 275 352.7 260 352.7 249.4 350 C 239.4 347.5 221.3 338.5 213.2 332 C 205.3 325.7 197.6 321.8 183.1 317 C 158.9 308.9 135.3 306.1 119 309.4 C 104.6 312.4 90.4 318.9 82.6 326.2 C 81.5 327.2 80.3 328 80 328 C 76.7 328 67.7 309.8 65.4 298.5 C 63.1 287.3 64 264.7 67.4 249.5 C 71.8 229.5 82.4 200.2 87.7 193.1 C 90.5 189.4 98.5 184 101 184 C 101.9 184 105.3 184.9 108.6 186 Z M 353.4 306.6 C 364.6 312.8 367.1 322.6 363.4 346.3 C 361.7 357.8 362.1 365.2 365.1 375 C 368.7 386.5 367.6 396.1 361.9 404.2 C 358.7 408.7 350.3 413.6 339.8 417.2 C 324.3 422.4 304.9 422.2 270 416.4 C 236.8 410.9 207.6 410.9 169 416.5 C 117.2 424 81.3 420.4 67.4 406.3 C 61.3 400 59.5 395 59.6 384 C 59.7 371.5 62.6 360.4 69.3 347.5 C 79.7 327.5 95.8 316.1 120.5 311.5 C 136.6 308.4 158.4 311.1 182.1 319 C 196.6 323.8 204.3 327.7 212.1 333.9 C 228.2 346.9 247.9 354.1 267.5 354.1 C 288.7 354.1 305.1 347.3 324.3 330.6 C 330.5 325.3 339 313.5 341 307.6 C 342 304.4 342.6 304 345.5 304 C 347.3 304 350.8 305.2 353.4 306.6 Z"
            fill="#808080"
            stroke-width="1"/>
        <path
            id="path_2"
            d="M 181.5 70 C 183.3 72 183.5 74.4 181.8 73.4 C 181.1 73 180.8 73 181.2 73.5 C 181.6 73.9 181.2 74.9 180.3 75.8 C 178.1 78.1 179.2 84.9 182.2 87.1 C 183.5 88.1 186.3 89.1 188.5 89.3 C 192.4 89.6 192.4 89.7 187.5 90 C 182.8 90.2 182.7 90.3 185.9 90.9 C 188.3 91.3 189.8 92.4 191 94.5 C 194.2 100.4 198.6 100.8 203.6 95.6 C 205.6 93.5 205.6 93.5 203.7 89.8 C 202.6 87.8 200.7 85.9 199.5 85.6 C 197.7 85.1 197.4 84.4 197.5 81.3 C 197.5 79.2 197.2 77 196.8 76.4 C 196.3 75.8 196.2 74.6 196.5 73.8 C 197.2 72 199.9 72.4 215 76.5 C 220.2 77.9 225.9 79.3 227.5 79.6 C 229.2 79.9 231 80.5 231.5 80.9 C 232.1 81.3 236.1 82.9 240.5 84.4 C 244.9 86 252 88.8 256.2 90.7 C 260.4 92.7 264 94.1 264.2 93.9 C 264.4 93.7 266 94.5 267.8 95.8 C 269.5 97.1 271 97.8 271 97.3 C 271 96.9 271.4 96.9 271.8 97.5 C 272.2 98 274.1 99.3 276 100.2 C 279.6 102 281.5 103.1 290.5 108.5 C 293.3 110.1 295.7 111.5 296 111.5 C 296.3 111.5 299.1 113.5 302.4 116 C 305.6 118.5 309.2 121.2 310.4 122 C 313.2 123.9 322 132.7 322 133.5 C 322 133.9 323.2 135.4 324.8 136.9 C 329.9 142.1 333.5 148.3 329.3 144.9 C 327.8 143.7 327.7 143.7 328.3 145.2 C 328.8 146.5 328.4 147 327.1 147 C 325.3 147 324.1 145.5 324.4 143.5 C 324.4 142.9 324.9 142.6 325.4 142.8 C 325.9 143 325.8 142.4 325 141.6 C 324.3 140.7 323.2 140 322.5 140 C 321.8 140 321 139.4 320.7 138.6 C 320.2 137.5 319.3 137.4 315.8 138.1 C 310.9 139.2 307.2 142.4 306.5 146.1 C 305.8 149.7 309.2 154.6 313.4 156.1 C 316.3 157.2 317 157.9 317 160.1 C 317 162.9 320.4 168 322.2 168 C 322.8 168 322.5 167.1 321.5 166 C 318.6 162.8 319.1 156.5 322.6 152.9 C 327.3 148 335.4 149 338.5 155 C 340.8 159.5 340.4 163.4 337.1 166.9 C 334.7 169.5 334.5 170 336 170 C 337 170 338.3 169.3 339 168.5 C 341.4 165.6 341.9 166.1 345.6 176 C 348.5 183.6 346.8 175.1 343.7 165.9 C 336.5 145 320.4 125.1 299.7 111.5 C 265.2 88.8 222.9 73.3 183.3 68.7 C 180.3 68.4 180.1 68.5 181.5 70 Z M 193.5 75.5 C 194.9 76.8 196 79.1 196 80.5 C 196 83.8 191.8 88 188.5 88 C 185.2 88 181 83.8 181 80.5 C 181 77.2 185.2 73 188.5 73 C 189.9 73 192.2 74.1 193.5 75.5 Z M 201.4 89.6 C 203.3 91.4 203.2 91.2 202.1 94.3 C 200.9 97.3 197.8 98.2 195.1 96.3 C 192.8 94.7 192.3 91.1 194.2 89.2 C 195.9 87.5 199.6 87.7 201.4 89.6 Z M 320.3 142.8 C 324.1 146.1 320.9 154 315.7 154 C 309.1 154 306.5 146.1 311.7 142.1 C 314.5 139.8 317.1 140 320.3 142.8 Z"
            fill="#808080"
            stroke-width="1"/>
        <path
            id="path_3"
            d="M 316.5 170 C 313.2 170.4 307.8 171.5 304.5 172.4 C 293.5 175.6 291.6 175.9 283 176.6 C 275.6 177.2 268.5 176.6 258 174.5 C 256.6 174.2 257.5 174.7 260 175.6 C 262.5 176.4 269 177.3 274.5 177.7 C 284.9 178.3 290.8 177.4 306.7 173 C 312.7 171.4 314.8 171.2 318.6 172 C 340.3 176.9 346.8 197.1 335.3 223.4 C 332 230.9 325.2 241.7 321.7 245 C 320.2 246.4 319 247.9 319 248.5 C 319 249 321.4 246.9 324.4 243.8 C 333.2 234.7 340.3 220.2 343.6 204.7 C 348.8 179.9 339 167.4 316.5 170 Z M 337 178.2 C 337 178.7 337.5 178.8 338 178.5 C 338.6 178.1 338.9 178.2 338.8 178.7 C 338.7 179.1 339.1 180.5 339.8 181.7 C 340.6 183.1 340.7 184.1 340 184.5 C 339.5 184.8 339 184.7 339 184.2 C 339 183.8 337.4 181.5 335.4 179.2 C 332.1 175.2 332 175 334.4 176.1 C 335.8 176.8 337 177.7 337 178.2 Z M 109.5 176 C 109.1 177.7 109 179.4 109.3 179.6 C 109.5 179.9 110 178.6 110.4 176.9 C 111.2 172.7 110.4 171.9 109.5 176 Z"
            fill="#808080"
            stroke-width="1"/>
        <path
            id="path_4"
            d="M 311.4 197.6 C 307.7 199.4 306 202.7 306 208.1 C 306 218.7 315.3 223.9 322.1 217.1 C 324.6 214.5 325 213.4 325 208.6 C 325 203.9 324.6 202.6 322.3 200.1 C 318.8 196.3 315.4 195.5 311.4 197.6 Z M 314 200.4 C 314.6 201.2 315 202.9 314.8 204.2 C 314.6 205.9 313.8 206.5 312 206.5 C 310.2 206.5 309.4 205.9 309.2 204.2 C 308.9 202 310.5 199 312 199 C 312.4 199 313.3 199.7 314 200.4 Z M 322 208.5 C 322 210.7 321.3 213.6 320.4 214.8 C 317.8 218.5 311.4 217.3 309.7 212.8 C 309.2 211.4 309.8 210.8 312.3 210.2 C 315.7 209.3 320.4 203.6 319.4 201.6 C 319.1 201 319.6 201.4 320.4 202.4 C 321.3 203.5 322 206.2 322 208.5 Z M 230.1 206.6 C 223.7 212 224.2 221.7 231.2 226 C 239.2 230.9 249 225.8 249 216.7 C 249 206.1 237.8 200.1 230.1 206.6 Z M 237 207.4 C 239 209.9 237.8 213.5 234.8 213.8 C 231.1 214.2 229.1 210.7 231.6 207.9 C 233.6 205.6 235.3 205.5 237 207.4 Z M 245.6 213.6 C 247.7 218.8 243.1 225 237.2 225 C 234.5 225 229.3 221.4 228.7 219.1 C 228 216.4 229.2 215.7 232.4 217.1 C 234.4 218.1 235.4 218 237.5 216.6 C 238.9 215.7 240.6 213.8 241.2 212.4 C 242.6 209.4 244 209.7 245.6 213.6 Z M 183.1 210 C 184 210.5 186 214 187.5 217.7 C 194.5 234.3 206 247 221.6 255.2 C 230.2 259.7 247.7 265.6 250.1 264.8 C 250.8 264.6 247.4 263.4 242.6 262.3 C 234.4 260.2 215 251.6 215 249.9 C 215 249.5 214.2 248.9 213.2 248.6 C 211.4 248 204.6 241.8 199.3 235.9 C 196 232.1 189.7 221.2 188.5 217 C 187.5 213.6 184.1 209 182.7 209 C 182 209 182.2 209.5 183.1 210 Z M 272 238.2 C 267.1 240.9 265.8 241.1 260 240.6 C 256.4 240.4 252.5 239.8 251.3 239.4 C 249.1 238.8 249 239 249 244.1 C 249 251.5 250.6 256.4 254.2 260.6 C 258.4 265.3 261.9 267 268 267 C 280.3 267 292.4 257.3 295.3 245.1 C 296.1 241.5 297.1 239.8 298.8 239.1 C 300.1 238.5 300.8 237.5 300.5 237 C 300.1 236.4 298.8 236.6 297 237.5 C 292.9 239.6 286.2 239.4 281.7 237 C 279.7 235.9 277.9 235.1 277.8 235.1 C 277.6 235.2 275 236.6 272 238.2 Z M 284.7 240.4 C 287.1 241.3 290.2 241.7 291.9 241.4 L 294.9 240.8 L 293.9 244.6 C 289.9 259.2 273 268.8 260.5 263.6 C 256.3 261.8 252.3 255.9 251.1 249.6 C 250.4 245.7 250.5 244.7 251.8 244.2 C 253.1 243.7 253.1 243.6 251.5 243 C 250.5 242.7 253.9 242.6 259.1 242.8 C 270.4 243.3 274.4 245.1 281.3 252.2 C 284.6 255.8 286 256.7 286 255.4 C 286 252.9 276.7 244.2 272.8 243.2 L 269.5 242.3 L 273.5 240.2 C 277.7 237.9 278 237.9 284.7 240.4 Z M 314 251.6 C 312.1 252.9 309.2 254.9 307.5 256 C 305.9 257.1 305.1 258 305.7 258 C 306.3 258 307.5 257.4 308.2 256.6 C 309 255.9 311 254.6 312.6 253.7 C 314.3 252.8 316.2 251.4 316.9 250.6 C 318.6 248.5 318.2 248.7 314 251.6 Z M 106.8 193.3 C 107.4 194 109.4 194.7 111.2 194.8 C 113 195 118.9 196.9 124.3 199 C 138.7 204.8 138.5 203.9 124 197.5 C 111.9 192.3 104.4 190.4 106.8 193.3 Z M 88.6 199 C 83.9 204.2 84 204.9 89 200.8 C 91.2 199 93 196.9 93 196.2 C 93 194.4 92.5 194.7 88.6 199 Z M 96.1 208.3 C 92.1 209.6 83.3 217.4 80.6 222.1 C 79.2 224.5 80.3 223.7 84.5 219.2 C 93.2 209.8 102.2 206.1 103.6 211.4 C 103.9 212.8 104.9 214.1 105.8 214.5 C 107.2 215 107.3 214.9 106.3 213.9 C 105.6 213.2 105 211.3 105 209.8 C 105 207.4 104.6 207 102.3 207.1 C 100.7 207.2 98 207.7 96.1 208.3 Z"
            fill="#808080"
            stroke-width="1"/>
        <path
            id="path_5"
            d="M 113.7 210.9 C 113.3 212.9 112.2 214.1 110.3 214.8 C 108.5 215.5 108.1 215.9 109.3 215.9 C 110.3 216 112.1 215 113.4 213.7 C 114.7 212.4 116.4 211.4 117.1 211.6 C 120.1 212 128.8 218.3 137 226 C 162.9 250.2 204.5 274.6 235.5 283.8 C 259.3 290.8 281.1 291.1 298.2 284.5 C 301.3 283.3 301.9 283.3 302.4 284.5 C 302.7 285.3 303.7 286 304.7 286 C 306.4 285.9 306.4 285.9 304.8 284.9 C 303.8 284.4 303 283.3 303 282.6 C 303 281.7 300.7 282.1 294.8 284.3 C 287.8 286.8 284.6 287.3 273.9 287.7 C 258.6 288.4 244.5 285.9 227.5 279.8 C 198.1 269.1 159.6 245.7 138.5 225.5 C 131.4 218.6 127.1 215.4 118.9 210.6 L 114.3 208 L 113.7 210.9 Z"
            fill="#808080"
            stroke-width="1"/>
        <path
            id="path_6"
            d="M 96.2 219.2 C 86.9 222.3 78.8 234.9 73.3 254.5 C 70.8 263.6 70.5 266 70.6 280.5 C 70.6 295.3 70.8 297.1 73.4 304.4 C 76.1 312.3 81.8 323 83.2 323 C 84.2 323 82.9 319.6 79 312.5 C 77.2 309.2 75.9 306.5 76 306.5 C 76.1 306.5 75.5 304 74.7 301 C 72.6 293.6 71.8 283.2 72.9 279.5 L 73.8 276.5 L 73.9 280.3 C 74 285.3 79.7 302 82 304 C 82.3 304.3 83.8 306.4 85.4 308.7 C 86.9 311 89.4 313.7 90.9 314.6 C 93 316 92.8 315.5 89.7 312.1 C 84.1 305.9 80.4 299.6 77.8 292.1 C 75.8 286.5 75.5 283.6 75.6 272.5 C 75.7 261.4 76.1 258.2 78.3 250.7 C 81.8 239.2 86.7 229.4 90.9 225.3 C 94 222.3 101.8 219 105.8 219 C 108.7 219 120.7 224.5 127 228.7 C 133.5 233.2 148.3 247.6 157.3 258.3 C 160 261.4 164.9 265.9 168.3 268.3 C 184.9 279.8 194.1 286 194.6 286 C 194.9 286 196.6 287 198.3 288.2 C 204.6 292.7 223.2 299.8 226.2 298.8 C 226.9 298.5 224.2 297.5 220.3 296.6 C 211 294.3 201.7 289.5 185.2 278.7 C 168.1 267.3 161.5 262 154.9 254 C 133.1 227.6 110.6 214.3 96.2 219.2 Z M 312.2 275 C 311 276 309.4 277.1 308.7 277.4 C 307.8 277.9 307.8 278.1 308.8 278.6 C 310.6 279.4 310.3 283.7 308.3 284.9 C 307.3 285.5 307 286 307.5 286 C 309.4 286 311 283.7 311 280.9 C 311 277.2 312.9 276.2 315 278.7 C 318.7 283.3 326.3 284.5 329.5 281 C 331.6 278.7 332.5 279.1 335.1 283.4 C 338 288.1 337.4 285.5 334.3 279.8 C 332 275.6 331.5 275.1 330.9 276.8 C 329.9 279.3 326.1 282 323.5 282 C 320.6 282 317 279.2 315.6 276 C 314.5 273.2 314.4 273.2 312.2 275 Z M 312.4 288 C 309 289.3 305 294.9 305 298.2 C 305 301.9 307.1 301.5 308.1 297.6 C 309.6 292 313.9 289.4 318.9 291.1 C 321.3 291.9 322.2 293.1 323 296.1 C 324.1 300.1 325.6 301.1 326.6 298.6 C 327.7 295.8 324.2 290 320.6 288.5 C 316.6 286.8 315.4 286.8 312.4 288 Z"
            fill="#808080"
            stroke-width="1"/>
        <path
            id="path_7"
            d="M 313.5 294 C 313.2 294.5 313.5 295 314.2 295 C 314.9 295 316.6 295.3 318 295.7 C 320.3 296.3 320.4 296.3 318.8 294.7 C 316.9 292.8 314.4 292.5 313.5 294 Z M 299 296 C 297.7 296.9 297.7 297 299 297 C 299.8 297 301.2 296.5 302 296 C 303.3 295.1 303.3 295 302 295 C 301.2 295 299.8 295.5 299 296 Z M 242.9 297.9 C 236.5 300 233 304 233 309.5 C 233 313.3 235.7 312.6 236.4 308.5 C 237.4 303.4 241.2 300.8 247.4 301.2 C 251.9 301.5 252.7 301.9 254.5 304.7 C 257.7 309.8 260.3 308.9 257.8 303.6 C 255.7 298.9 248.5 296.2 242.9 297.9 Z M 289 298.6 L 282.5 299.9 L 288.2 299.6 C 291.3 299.3 294.7 298.7 295.7 298.1 C 297.8 296.9 297.4 296.9 289 298.6 Z M 328.6 300.6 C 330 306.4 330.2 314.8 329 317.2 C 327.8 319.3 327.9 319.4 329.5 317.9 C 333.4 314.1 333.3 302.1 329.3 298.8 C 328.1 297.9 328 298.2 328.6 300.6 Z M 268 301 L 260.5 301.6 L 267 301.7 C 270.6 301.8 275.5 301.5 278 301.1 C 282 300.3 282.1 300.3 279 300.3 C 277.1 300.3 272.1 300.6 268 301 Z M 325.2 306 C 325.1 307.9 324.1 312.4 323 315.9 C 320.4 324.4 321.2 325 324 316.6 C 325.2 312.8 326 308.5 325.7 306.3 L 325.3 302.5 L 325.2 306 Z M 300.2 318.1 C 296.7 320.9 291.9 321.4 287.5 319.6 L 283.6 318 L 280.4 321.1 C 276.5 324.9 269.3 327 263.8 326 C 261.7 325.6 259.7 325.6 259.5 326.1 C 258.8 327.1 259.8 327.7 264.1 328.5 C 269 329.4 275.7 327.5 280.2 323.9 C 283.8 321.1 284.2 321 287.9 322.1 C 292.8 323.6 298.2 322.6 301.7 319.6 C 304.9 316.9 303.5 315.4 300.2 318.1 Z M 347.6 310.2 C 346.7 313.8 346.9 315.5 348.6 317.6 C 350.1 319.4 350.1 319.4 349.1 317.3 C 347.5 314.1 347.8 312.2 350 310 C 351.9 308.1 351.9 308 350.1 308 C 349 308 348 308.9 347.6 310.2 Z M 125 314.7 C 123.6 314.9 120.1 315.6 117.2 316.1 C 112 317.1 111.9 317.2 113.5 319.1 C 117.4 323.3 114.3 330 108.5 330 C 104.7 330 102 327.4 102 323.6 L 102 320.9 L 96.3 324 C 93.1 325.7 88.7 328.7 86.5 330.7 C 82.2 334.6 83.2 334.1 89.5 329.3 C 91.7 327.6 94.9 325.8 96.5 325.2 C 99.4 324.3 99.8 324.5 101.8 327.6 C 103.9 330.9 106.1 331.7 111 331 C 114.2 330.6 116.4 327.2 116.5 322.3 L 116.5 317.6 L 121 316.7 C 123.5 316.3 130.7 315.6 137 315.1 L 148.5 314.3 L 138 314.3 C 132.2 314.3 126.4 314.5 125 314.7 Z M 356 318.7 C 354.6 319.4 354.2 320 355 320 C 356.7 320 359.7 318.3 359 317.7 C 358.7 317.5 357.4 317.9 356 318.7 Z M 350.2 319.9 C 349.2 320.5 349.6 321.2 351.7 322.5 C 354.5 324.3 354.5 324.3 352.7 322.3 C 351.8 321.2 351.3 320 351.7 319.7 C 352.6 318.8 351.8 318.9 350.2 319.9 Z M 118.7 328.8 C 117.7 329.8 117 331.4 117 332.2 C 117 334.2 119.6 336.3 121.2 335.7 C 122.1 335.3 121.9 335.1 120.8 335.1 C 119 335 117.5 331.6 118.5 329.9 C 118.9 329.3 120.2 328.5 121.4 328 C 122.8 327.4 123 327.1 121.9 327.1 C 121 327 119.6 327.8 118.7 328.8 Z M 124.8 330.5 C 125 331.9 124.7 333.7 124 334.5 C 122.9 335.8 123 335.9 124.4 335.4 C 126.1 334.8 126.7 329.5 125.1 328.6 C 124.7 328.3 124.5 329.2 124.8 330.5 Z M 326.5 342.9 C 325.1 343.5 326.4 343.8 330.8 344.2 C 342.1 345.3 348.6 351.5 347.7 360.5 C 347.4 363.7 347.7 366.2 348.6 367.5 C 350.4 370.2 354 384.3 354 388.4 C 354 393.9 351 403.4 347.9 407.9 C 344.3 413 344.6 414.5 348.2 409.8 C 351.4 405.6 355.1 398 354.5 396.9 C 354.2 396.5 354.4 395.9 354.9 395.5 C 355.5 395.2 355.8 397.3 355.5 401.2 L 355.1 407.5 L 356.7 404.5 C 359.7 399.2 359 385.4 355.3 374 C 353.6 368.8 351.7 361.6 351.1 358.1 C 350 351.2 346.5 345.6 341.9 343.3 C 339.3 341.9 329.7 341.7 326.5 342.9 Z M 77.8 359 C 74.4 360.8 72 363 73.5 363 C 73.8 363 76.4 361.7 79.3 360 C 85 356.7 83.7 355.9 77.8 359 Z M 64.7 364.6 C 62.9 366.5 66.5 367 80.1 367 C 92.7 367 95 366.8 95 365.5 C 95 364.2 92.7 364 80.2 364 C 72 364 65 364.3 64.7 364.6 Z M 134.7 364.7 C 132.7 366.6 135.3 367 149.5 367 C 162.6 367 165 366.8 165 365.5 C 165 364.2 162.7 364 150.2 364 C 142 364 135 364.3 134.7 364.7 Z M 63.5 373.3 C 62.4 376.1 62.2 377.6 62.9 377.8 C 63.5 378 64 380.7 64 383.9 C 64 395.7 70.3 405.5 81.7 411.4 C 87.2 414.2 86.6 413.2 80.3 409.1 C 73.3 404.6 69.6 400.2 66.9 393 C 64.2 385.9 64.6 380 68.4 371 C 68.8 369.9 68.4 369.4 67.1 369.3 C 65.7 369.2 64.7 370.3 63.5 373.3 Z M 235.3 378.7 C 236.2 378.9 237.8 378.9 238.8 378.7 C 239.7 378.4 238.9 378.2 237 378.2 C 235.1 378.2 234.3 378.4 235.3 378.7 Z M 104 389.7 C 99 392.4 93.9 392.3 89.5 389.4 C 88.2 388.5 86.9 388.3 86.6 388.8 C 85.8 390.1 87.7 391.4 91.9 392.9 C 96.7 394.5 99.8 394.3 104.8 392 L 109.1 390 L 114.3 392.6 C 118 394.5 121 395.3 125.5 395.3 C 132.1 395.4 139.8 393.4 138.3 391.9 C 137.7 391.3 136.3 391.3 134.6 392 C 128.4 394.3 117.6 392.8 111.8 388.8 C 110.4 387.8 109 387.1 108.8 387.1 C 108.7 387.2 106.5 388.4 104 389.7 Z M 69 128.1 C 61.6 131.4 57.3 139.8 58.3 149.3 C 58.9 155.9 63.1 161.8 69.4 164.9 C 73.8 167.1 74.7 167.2 78.7 166.1 C 84.8 164.5 89.5 160.7 91.4 155.9 C 93.4 151.1 93.5 142.1 91.7 137.7 C 90.2 134.2 82.9 127.1 80.5 126.9 C 74.9 126.4 72.2 126.7 69 128.1 Z M 82.7 132 C 92.2 137.7 92.4 154.5 83.1 160.7 C 73.7 167 61.6 159.1 61.6 146.5 C 61.6 134.2 73.2 126.2 82.7 132 Z"
            fill="#808080"
            stroke-width="1"/>
        <path
            id="path_8"
            d="M 72 139.9 C 73.9 140.3 76.5 141.2 77.7 141.8 C 78.9 142.5 81.1 142.9 82.7 142.9 C 85.4 142.7 85.4 142.7 83 142.3 C 81.7 142 79.7 141.2 78.6 140.4 C 77.5 139.6 74.7 139.1 72.5 139.1 L 68.5 139.2 L 72 139.9 Z M 68.5 146.5 C 71.7 148 81.7 148.5 83.7 147.2 C 84.3 146.8 81.6 146.5 77.7 146.5 C 73.7 146.5 69.4 146.2 68 145.8 C 66.1 145.2 66.2 145.4 68.5 146.5 Z M 373 265.6 C 368.8 267.4 364.4 271.5 362.4 275.2 C 361.6 276.7 361 280.8 361 284.5 C 361 292 363.5 297.1 369.2 301.1 C 374.1 304.6 385 305 390.5 301.8 C 402.3 294.9 404.3 279.5 394.7 270.2 C 388.2 264.1 380.4 262.4 373 265.6 Z M 386.5 268.9 C 388.7 269.9 391.8 272.2 393.5 273.9 C 395.9 276.5 396.5 278 396.8 283.3 C 397.1 288.6 396.8 290 394.8 293 C 391.1 298.5 386.5 301 380.5 301 C 365.3 301 358.2 282.6 369.3 272.2 C 371.8 269.9 378.1 267.1 381 267.1 C 381.8 267.1 384.3 267.9 386.5 268.9 Z"
            fill="#808080"
            stroke-width="1"/>
        <path
            id="path_9"
            d="M 387 280.5 C 387.7 281.3 389.4 282 390.9 282 C 393.4 281.9 393.4 281.9 390.1 280.5 C 385.9 278.6 385.4 278.6 387 280.5 Z M 366 288 C 366 290.4 369.5 295 372.6 296.7 C 377.5 299.4 388.1 297.8 391.6 293.8 C 393.6 291.5 391.9 292.1 388.9 294.7 C 387.9 295.5 384.8 296.3 381.9 296.6 C 375.1 297.3 370.2 295 367.8 290 C 366.8 288.1 366 287.2 366 288 Z"
            fill="#808080"
            stroke-width="1"/>
    </g>
</svg>
